P1
# CREATOR: GIMP PNM Filter Version 1.1
200 200
0000000000000000000000000000000000000000000000000000000000000000000000
0000000000000000000000000000000000000000000000000000000000000000000000
0000000000000000000000000000000000000000000000000000000000000000000000
0000000000000000000000000000000000000000000000000000000000000000000000
0000000000000000000000000000000000000000000000000000000000000000000000
0000000000000000000000000000000000000000000000000000000000000000000000
0000000000000000000000000000000000000000000000000000000000000000000000
0000000000000000000000000000000000000000000000000000000000000000000000
0000000000000000000000000000000000000000000000000000000000000000000000
0000000000000000000000000000000000000000000000000000000000000000000000
0000000000000000000000000000000000000000000000000000000000000000000000
0000000000000000000000000000000000000000000000000000000000000000000000
0000000000000000000000000000000000000000000000000000000000000000000000
0000000000000000000000000000000000000000000000000000000000000000000000
0000000000000000000000000000000000000000000000000000000000000000000000
0000000000000000000000000000000000000000000000000000000000000000000000
0000000000000000000000000000000000000000000000000000000000000000000000
0000000000000000000000000000000000000000000000000000000000000000000000
0000000000000000000000000000000000000000000000000000000000000000000000
0000000000000000000000000000000000000000000000000000000000000000000000
0000000000000000000000000000000000000000000000000000000000000000000000
0000000000000000000000000000000000000000000000000000000000000000000000
0000000000000000000000000000000000000000000000000000000000000000000000
0000000000000000000000000000000000000000000000000000000000000000000000
0000000000000000000000000000000000000000000000000000000000000000000000
0000000000000000000000000000000000000000000000000000000000000000000000
0000000000000000000000000000000000000000000000000000000000000000000000
0000000000000000000000000000000000000000000000000000000000000000000000
0000000000000000000000000000000000000000000000000000000000000000000000
0000000000000000000000000000000000000000000000000000000000000000000000
0000000000000000000000000000000000000000000000000000000000000000000000
0000000000000000000000000000000000000000000000000000000000000000000000
0000000000000000000000000000000000000000000000000000000000000000000000
0000000000000000000000000000000000000000000000000000000000000000000000
0000000000000000000000000000000000000000000000000000000000000000000000
0000000000000000000000000000000000000000000000000000000000000000000000
0000000000000000000000000000000000000000000000000000000000000000000000
0000000000000000000000000000000000000000000000000000000000000000000000
0000000000000000000000000000000000000000000000000000000000000000000000
0000000000000000000000000000000000000000000000000000000000000000000000
0000000000000000000000000000000000000000000000000000000000000000000000
0000000000000000000000000000000000000000000000000000000000000000000000
0000000000000000000000000000000000000000000000000000000000000000000000
0000000000000000000000000000000000000000000000000000000000000000000000
0000000000000000000000000000000000000000000000000000000000000000000000
0000000000000000000000000000000000000000000000000000000000000000000000
0000000000000000000000000000000000000000000000000000000000000000000000
0000000000000000000000000000000000000000000000000000000000000000000000
0000000000000000000000000000000000000000000000000000000000000000000000
0000000000000000000000000000000000000000000000000001111111111111111111
1000000000000000000000000000000000000000000000000000000000000000000000
0000000000000000000000000000000000000000000000000000000000000000000000
0000000000000000000000000000000000000111100000000000000000000111000000
0000000000000000000000000000000000000000000000000000000000000000000000
0000000000000000000000000000000000000000000000000000000000000000000000
0000000000000000000000001110000000000000000000000000001100000000000000
0000000000000000000000000000000000000000000000000000000000000000000000
0000000000000000000000000000000000000000000000000000000000000000000000
0000000000011100000000000000000000000000000000110000000000000000000000
0000000000000000000000000000000000000000000000000000000000000000000000
0000000000000000000000000000000000000000000000000000000000000000000011
1000000000000000000000000000000000000011000000000000000000000000000000
0000000000000000000000000000000000000000000000000000000000000000000000
0000000000000000000000000000000000000000000000000000000011000000000000
0000000000000000000000000000001000000000000000000000000000000000000000
0000000000000000000000000000000000000000000000000000000000000000000000
0000000000000000000000000000000000000000000011000000000000000000000000
0000000000000000000001100000000000000000000000000000000000000000000000
0000000000000000000000000000000000000000000000000000000000000000000000
0000000000000000000000000000000011000000000000000000000000000000000000
0000000000000100000000000000000000000000000000000000000000000000000000
0000000000000000000000000000000000000000000000000000000000000000000000
0000000000000000000001000000000000000000000000000000000000000000000000
0000110000000000000000000000000000000000000000000000000000000000000000
0000000000000000000000000000000000000000000000000000000000000000000000
0000000001100000000000000000000000000000000000000000000000000000001000
0000000000000000000000000000000000000000000000000000000000000000000000
0000000000000000000000000000000000000000000000000000000000000000000010
0000000000000000000000000000000000000000000000000000000001000000000000
0000000000000000000000000000000000000000000000000000000000000000000000
0000000000000000000000000000000000000000000000000000000001000000000000
0000000000000000000000000000000000000000000000001100000000000000000000
0000000000000000000000000000000000000000000000000000000000000000000000
0000000000000000000000000000000000000000000001100000000000000000000000
0000000000000000000000000000000000000000100000000000000000000000000000
0000000000000000000000000000000000000000000000000000000000000000000000
0000000000000000000000000000000000100000000000000000000000000000000000
0000000000000000000000000000000100000000000000000000000000000000000000
0000000000000000000000000000000000000000000000000000000000000000000000
0000000000000000000000010000000000000000000000000000000000000000000000
0000000000000000000000100000000000000000000000000000000000000000000000
0000000000000000000000000000000000000000000000000000000000000000000000
0000000000001000000000000000000000000000000000000000000000000000000000
0000000000000100000000000000000000000000000000000000000000000000000000
0000000000000000000000000000000000000000000000000000000000000000000000
0100000000000000000000000000000000000000000000000000000000000000000000
0000100000000000000000000000000000000000000000000000000000000000000000
0000000000000000000000000000000000000000000000000000000000001000000000
0000000000000000000000000000000000000000000000000000000000000000010000
0000000000000000000000000000000000000000000000000000000000000000000000
0000000000000000000000000000000000000000000000000100000000000000000000
0000000000000000000000000000000000000000000000000000000010000000000000
0000000000000000000000000000000000000000000000000000000000000000000000
0000000000000000000000000000000000000010000000000000000000000000000000
0000000000000000000000000000000000000000000000010000000000000000000000
0000000000000000000000000000000000000000000000000000000000000000000000
0000000000000000000000000001000000000000000000000000000000000000000000
0000000000000000000000000000000000000010000000000000000000000000000000
0000000000000000000000000000000000000000000000000000000000000000000000
0000000000000000100000000000000000000000000000000000000000000000000000
0000000000000000000000000000100000000000000000000000000000000000000000
0000000000000000000000000000000000000000000000000000000000000000000000
0000010000000000000000000000000000000000000000000000000000000000000000
0000000000000000000100000000000000000000000000000000000000000000000000
0000000000000000000000000000000000000000000000000000000000000000100000
0000000000000000000000000000000000000000000000011111100000000000000000
0000000000100000000000000000000000000000000000000000000000000000000000
0000000000000000000000000000000000000000000000000000001000000000000000
0000000000000000000000000000000011111000000111111111100000000000000000
0100000000000000000000000000000000000000000000000000000000000000000000
0000000000000000000000000000000000000000000100000000000000000000000000
0000000000000000000111000000000000000000000111000000000000000010000000
0000000000000000000000000000000000000000000000000000000000000000000000
0000000000000000000000000000000010000000000000000000000000000000000000
0000001110000000000000000000000000001111000000000000100000000000000000
0000000000000000000000000000000000000000000000000000000000000000000000
0000000000000000000000100000000000000000000000000000000000000000110000
0000000000000000000000000000001100000000000100000000000000000000000000
0000000000000000000000000000000000000000000000000000000000000000000000
0000000000010000000000000000000000000000000000000000110000000000000000
0000000000000000000000110000000001000000000000000000000000000000000000
0000000000000000000000000000000000000000000000000000000000000000000000
0100000000000000000000000000000000000000110000000000000000000000000000
0000000000000011100000001000000000000000000000000000000000000000000000
0000000000000000000000000000000000000000000000000000000000001000000000
0000000000000000000000000000010000000000000000000000000000000000000000
0000000110000001000000000000000000000000000000000000000000000000000000
0000000000000000000000000000000000000000000000000010000000000000000000
0000000000000000011000000000000000000000000000000000000000000000000001
1000010000000000000000000000000000000000000000000000000000000000000000
0000000000000000000000000000000000000001000000000000000000000000000000
0000001000000000000000000000000000000000000000000000000000000110001000
0000000000000000000000000000000000000000000000000000000000000000000000
0000000000000000000000000000100000000000000000000000000000000000110000
0000000000000000000000000000000000000000000000000000010010000000000000
0000000000000000000000000000000000000000000000000000000000000000000000
0000000000000000001000000000000000000000000000000000010000000000000000
0000000000000000000000000000000000000000000011100000000000000000000000
0000000000000000000000000000000000000000000000000000000000000000000000
0000000010000000000000000000000000000000011000000000000000000000000000
0000000000000000000000000000000000000100000000000000000000000000000000
0000000000000000000000000000000000000000000000000000000000000000000100
0000000000000000000000000000001000000000000000000000000000000000000000
0000000000000000000000000000100000000000000000000000000000000000000000
0000000000000000000000000000000000000000000000000000000001000000000000
0000000000000000000100000000000000000000000000000000000000000000000000
0000000000000000000100000000000000000000000000000000000000000000000000
0000000000000000000000000000000000000000000000100000000000000000000000
0000000010000000000000000000000000000000000000000000000000000000000000
0000000000100000000000000000000000000000000000000000000000000000000000
0000000000000000000000000000000000001000000000000000000000000000000100
0000000000000000000000000000000000000000000000000000000000000000000000
0100000000000000000000000000000000000000000000000000000000000000000000
0000000000000000000000000010000000000000000000000000000110000000000000
0000000000000000000000000000000000000000000000000000000000000100000000
0000000000000000000000000000000000000000000000000000000000000000000000
0000000000000001000000000000000000000000000010000000000000000000000000
0000000000000000000000000000000000000000000000000001000000000000000000
0000000000000000000000000000000000000000000000000000000000000000000000
0000010000000000000000000000000001000000000000000000000000000000000000
0111111111111111111111100000000000000000010000000000000000000000000000
0000000000000000000000000000000000000000000000000000000000000000010000
0000000000000000000000100000000000000000000000000000000111111000000000
1000000001000111100000000000000010000000000000000000000000000000000000
0000000000000000000000000000000000000000000000000000001000000000000000
0000000000010000000000000000000000000000011110000000000000001000000000
1000000111000000000000100000000000000000000000000000000000000000000000
0000000000000000000000000000000000000000000010000000000000000000000000
1000000000000000000000000001111000000000000000000010000000000100000000
1110000000001000000000000000000000000000000000000000000000000000000000
0000000000000000000000000000000000100000000000000000000000010000000000
0000000000000011100000000000000000000000100000000001000000000001100000
0010000000000000000000000000000000000000000000000000000000000000000000
0000000000000000000000010000000000000000000000001000000000000000000000
0011000000000000000000000000001000000000010000000000000100000010000000
0000000000000000000000000000000000000000000000000000000000000000000000
0000000000000100000000000000000000000100000000000000000000001100000000
0000000000000000000010000000000010000000000000100000010000000000000000
0000000000000000000000000000000000000000000000000000000000000000000000
0001000000000000000000000010000000000000000000000101000000000000000000
0000000000100100000000010000000000001110000100011000000000000000000000
0000000000000000000000000000000000000000000000000000000000000001000000
0000000000000001000000000000000000000010010000000000000000000000000000
1000110000000100000000000011110001111001000000000000000000000000000000
0000000000000000000000000000000000000000000000000000100000000000000000
0000100000000000000000000011000100000000000000000000000000001000001110
0001000000000000111111110000010000000000000000000000000000000000000000
0000000000000000000000000000000000000000001000000000010000000001000000
0000000000000001000010000000000000000000000000000010000000000000100000
0000001111000000000100000000000000000000000000000000000000000000000000
0000000000000000000000000000000010000000000100000000100000000000000000
0000100000100000000000000000000000000000100000000000001000000000001100
0000000001000000000000000000000000000000000000000000000000000000000000
0000000000000000000000100000000001000000001000000000000000000011000000
1000000000000000000000000000001000000000000001000000000010000000000001
0000000000000000000000000000000000000000000000000000000000000000000000
0000000000001000000000010000000100000000000000000001000000001000000000
0000000000000000000100000000000000010000000000100000000000010000000000
0000000000000000000000000000000000000000000000000000000000000000000000
0010000000000100000010000000000000000000100000000100000000000000000000
0000000001000000000000000100000000001000000000000100000000000000000000
0000000000000000000000000000000000000000000000000000000000000100000000
0001000001000000000000000000011000000101000000000000000000000000000001
0000000000000000100000000010000000000001000000000000000000000000000000
0000000000000000000000000000000000000000000000000001000000000001000001
0000000000000000011010000010010000000000000000000000000000010000000000
0000000100000001000000000000100000000000000000000000000000000000000000
0000000000000000000000000000000000000000010000000000010000100000000000
0000001000100001000100000100000000000000000000000100000000000000000100
0000010001110000001000000000000000000000000000000000000000000000000000
0000000000000000000000000000000100000000000010010000000000000000010000
1000100010000110100000000000000000100001000000000000000001000000010011
1100000010000000000000000000000000000000000000000000000000000000000000
0000000000000000000010000000000000100100000000000000001000001011000010
0010000100000000000000010100100000000011100000001000000111111100000100
0000000000000000000000000000000000000000000000000000000000000000000000
0000000000100000000000001010000000000000000100000010000000101100000100
0000000000001001001000000001000100000010000001111110000001000000000000
0000000000000000000000000000000000000000000000000000000000000000000000
1000000000000111000000000000000010000000100000000100000000100000000000
0100001010000000010001000000010000111111000000100000000000000000000000
0000000000000000000000000000000000000000000000000000000000001000000000
0001110000000000000001000000001000000000000000001000000000001000000100
0000000100010000000100001111100000001000000000000000000000000000000000
0000000000000000000000000000000000000000000000000010000000000001110000
0000000000100000000010000000000000000001000000000100000000000000000011
1000000000100011110000000100000000000000000000000000000000000000000000
0000000000000000000000000000000000000000100000000000011100000000000000
1000000000100000000000000000010000000010000000000000000000000000000000
1001111000000001000000000000000000000000000000000000000000000000000000
0000000000000000000000000000010000000000001111000000000000010000000000
1000000000000000000010000001000000000000000000000000000000001001110000
0000100000000000000000000000000000000000000000000000000000000000000000
0000000000000000000100000000000011110000000000001000000000001000000000
0000000000100001100000000000000000000000000000000001011000000000100000
0000000000000000000000000000000000000000000000000000000000000000000000
0000000001000000000000111100000000000010000000000010000000000000000000
0100100000000000000000000000000001100000001010000000010000000000000000
0000000000000000000000000000000000000000000000000000000000000000000001
0000000000011111000000000001000000000001000000000000000000000011000000
0000000000000000001111100100000000100000000100000000000000000000000000
0000000000000000000000000000000000000000000000000000000000010000000000
0111110000000000100000000000010000000000000000000000000000000000000000
0000111100000000100000001000000010000000000000000000000000000000000000
0000000000000000000000000000000000000000000000000100000000000111111000
0000001000000000000100000000000000000000000000000000000000011111000000
0000001000000010000001000000000000000000000000000000000000000000000000
0000000000000000000000000000000000000001000000000011111110000000001000
0000000001000000011000000000000000000000000011111000000000000000001000
0000010000100000000000000000000000000000000000000000000000000000000000
0000000000000000000000000000010000000000111111100000000101000000000001
0000001001000000000000000000000011000000000000000000000001000000010001
0000000000000000000000000000000000000000000000000000000000000000000000
0000000000000000000100000000001111111000000001001000000000010000001001
0000000000000000000111000000000000000000000000010000000100010000000000
0000000000000000000000000000000000000000000000000000000000000000000000
0000000001000000000111111110000000010001000000000100000010010000000000
0000011110000000000000000000000000000100000001001000000000000000000000
0000000000000000000000000000000000000000000000000000000000000000000001
0000000001111110100000001000010000000010000000011000000000000011100000
0000000000000000000000000001000000011100000000000000000000000000000000
0000000000000000000000000000000000000000000000000000000000010000000001
1111100100000010000100000000100000000000000000000011000000000000000000
0000000000000000010000000100110000000000000000000000000000000000000000
0000000000000000000000000000000000000000000000000100000000011111000100
0000000111000000001000000000000000000111000000000000000000000000000000
0000000100000010000010000000000000000000000000000000000000000000000000
0000000000000000000000000000000000000001000000001111110001000000111000
1000000010000000000000000110000000000000000000000000000000000000000100
0000100000010000000000000000000000000000000000000000000000000000000000
0000000000000000000000000000010000000011111000001000110000000100000100
0000000000000110000000000000000000000000000000000000000001000000100000
0010000000000000000000000000000000000000000000000000000000000000000000
0000000000000000000010000000111100000011110000000001000001000000000000
1110000000000000000000000000000000000000000000010000001000000001000000
0000000000000000000000000000000000000000000000000000000000000000000000
0000000000100000001111000000100000000000010000010000000000010000000000
0000000000000000000000000000000000000100000100000011100000000000000000
0000000000000000000000000000000000000000000000000000000000000000000000
1000000011100000010000000000000100000100000000001000000000000000000000
0000000000000000000000000001000001000011000000000000000000000000000000
0000000000000000000000000000000000000000000000000000000000001000000011
0000011000000000000111100010000000000010000000000000000000000000000000
0000000000000000010000100001000000000000000000000000000000000000000000
0000000000000000000000000000000000000000000000000010000000100000100000
0000111111111100100000000000100000000000000000000000000000000000000000
0000000100001001100000000000000000000000000000000000000000000000000000
0000000000000000000000000000000000000000100000001000001000000001111111
1111011100000000001000000000000000000000000000000000000000000000000100
0100100000000000000000000000000000000000000000000000000000000000000000
0000000000000000000000000000001000000100000001000000001111111111111110
0000000001000000000000000000000000000000000000000000000001001000100000
0000000000000000000000000000000000000000000000000000000000000000000000
0000000000000000000010000001000000001000000000011111111111100000000001
0000000000000000000000000000000000000000000000011100001000000000000000
0000000000000000000000000000000000000000000000000000000000000000000000
0000000000010000100000000001000000000000111111111100000000010000000000
0000000000000000000000000000000000001000000010000000000000000000000000
0000000000000000000000000000000000000000000000000000000000000000000000
0100010000000000001000000000000000111111100000000010000000000000000000
0000000000000000000000000010000000100000000000000000000000000000000000
0000000000000000000000000000000000000000000000000000000000000100100000
0000000001000000000000000000000100000000100000000000000000000000000000
0000000000000001000000001000000000000000000000000000000000000000000000
0000000000000000000000000000000000000000000000000000110000000000000000
1000000000000000000001000000000100000000000000000000000000000000000000
0000011000000010000000000000000000000000000000000000000000000000000000
0000000000000000000000000000000000000000000000000000000000000110000000
0000000000001000000001000000000000000000000000000000000000000001100100
0000100000000000000000000000000000000000000000000000000000000000000000
0000000000000000000000000000000000000000000000000000010000000000000000
0001000000001000000000000000000000000000000000000001101000101111100000
0000000000000000000000000000000000000000000000000000000000000000000000
0000000000000000000000000000000000000000000011100000000000000000100000
0001000000000000000000000000000000000000100010000100000000000000000000
0000000000000000000000000000000000000000000000000000000000000000000000
0000000000000000000000000000000000000110000000000000000100000000100000
0000000000000000000000000001110000100000100000000000000000000000000000
0000000000000000000000000000000000000000000000000000000000000000000000
0000000000000000000000000000011111111111111110100000000100000000000000
0000000000000001100000010000000100000000000000000000000000000000000000
0000000000000000000000000000000000000000000000000000000000000000000000
0000000000000000001000000000000000000100000000100000000000000000000000
0011100000000100000000100000000000000000000000000000000000000000000000
0000000000000000000000000000000000000000000000000000000000000000000000
0000000100000000000000000000110000000100000000000000000000001100000000
0010000000000100000000000000000000000000000000000000000000000000000000
0000000000000000000000000000000000000000000000000000000000000000000100
0000000000000000001011000000111000000000000011111100000000000100000000
0000100000000000000000000000000000000000000000000000000000000000000000
0000000000000000000000000000000000000000000000000000000000111111111000
0000000100001111111001110011111111000010000000000001000000000000100000
0000000000000000000000000000000000000000000000000000000000000000000000
0000000000000000000000000000000000000000000000000000000001000000000100
0000000001000011000000010000011000000000010000000000000100000000000000
0000000000000000000000000000000000000000000000000000000000000000000000
0000000000000000000000000000000000000000000000010000000010000000000001
0000000000000100000001100000000100000000000000100000000000000000000000
0000000000000000000000000000000000000000000000000000000000000000000000
0000000000000000000000000000000000000100000001000000000000001000000000
0010000000000100000001000000000000001000000000000000000000000000000000
0000000000000000000000000000000000000000000000000000000000000000000000
0000000000000000000000000001000000100000000000000001100000000100000000
0000110001100000000000000001000000000000000000000000000000000000000000
0000000000000000000000000000000000000000000000000000000000000000000000
0000000000000000010000110100000000000000010100000010000000000000001010
1000000000000000010000000000000000000000000000000000000000000000000000
0000000000000000000000000000000000000000000000000000000000000000000000
0000000100110001000000000000000100110001000000000000000001001000000000
0000000010000000000000000000000000000000000000000000000000000000000000
0000000000000000000000000000000000000000000000000000000000000000000011
0000100000000000000001000010100000000000000000000100000000000000000010
0000000000000000000000000000000000000000000000000000000000000000000000
0000000000000000000000000000000000000000000000000000000000000000100000
0000000000010000010000001111100000000001000000000000000000010000000000
0000000000000000000000000000000000000000000000000000000000000000000000
0000000000000000000000000000000000000000000000000000010000000000000000
0010000000000111111100000000010000000000000000000100000000000000000000
0000000000000000000000000000000000000000000000000000000000000000000000
0000000000000000000000000000000000000000000100000000000000000010000000
0011111111100000001000000000000000000001000000000000000000000000000000
0000000000000000000000000000000000000000000000000000000000000000000000
0000000000000000000000000000000001000000000000000000010000000011111111
1000000010000000000000000000001000000000000000000000000000000000000000
0000000000000000000000000000000000000000000000000000000000000000000000
0000000000000000000000100000000000000000000100000000111111111000000010
0000000000000000000010000000000000000000000000000000000000000000000000
0000000000000000000000000000000000000000000000000000000000000000000000
0000000000001000000000000000000001000000001111111110000001000000000000
0000000000100000000000000000000000000000000000000000000000000000000000
0000000000000000000000000000000000000000000000000000000000000000000000
0010000000000000000000001000000011111111100000010000000000000000000000
1000000000000000000000000000000000000000000000000000000000000000000000
0000000000000000000000000000000000000000000000000000000000000010000000
0000000000000010000000011111110000000100000000000000000000000100000000
0000000000000000000000000000000000000000000000000000000000000000000000
0000000000000000000000000000000000000000000000000000100000000000000000
0000100000000011111000000010000000000000000000000001000000000000000000
0000000000000000000000000000000000000000000000000000000000000000000000
0000000000000000000000000000000000000000010000000000000000000000100000
0000000000000000100000000000000000000000010000000000000000000000000000
0000000000000000000000000000000000000000000000000000000000000000000000
0000000000000000000000000000000100000000000000000000000100000000000000
0000001000000000000000000000000100000000000000000000000000000000000000
0000000000000000000000000000000000000000000000000000000000000000000000
0000000000000000000001000000000000000000000001000000000000000000010100
0000000000000000000001000000000000000000000000000000000000000000000000
0000000000000000000000000000000000000000000000000000000000000000000000
0000000000010000000000000000000000001000000000000000001000110000000000
0000000000010000000000000000000000000000000000000000000000000000000000
0000000000000000000000000000000000000000000000000000000000000000000000
0100000000000000000000000101000000011110000010000011100000000000000000
0100000000000000000000000000000000000000000000000000000000000000000000
0000000000000000000000000000000000000000000000000000000000000100000000
0000000000000010001000011111111000100000000110000000000000001010000000
0000000000000000000000000000000000000000000000000000000000000000000000
0000000000000000000000000000000000000000000000000001000000000000000000
0011000010000111111110001000000000011111110001111100100000000000000000
0000000000000000000000000000000000000000000000000000000000000000000000
0000000000000000000000000000000000000000010000000000000000111100000010
0011111111110010000000000000000011100000000100000000000000000000000000
0000000000000000000000000000000000000000000000000000000000000000000000
0000000000000000000000000000000100000000000011110000000000010011111111
1100100000000000000000000000000001000000000000000000000000000000000000
0000000000000000000000000000000000000000000000000000000000000000000000
0000000000000000000001000011111111000000000000000100111111111100100000
0000000000000000000000100000000000000000000000000000000000000000000000
0000000000000000000000000000000000000000000000000000000000000000000000
0000000000011111000000000000000000000001001111111111001000000000000000
0000000000001000000000000000000000000000000000000000000000000000000000
0000000000000000000000000000000000000000000000000000000000000000000000
1000000000000000000000000000010001111111100010000000000000000000000000
0010000000000000000000000000000000000000000000000000000000000000000000
0000000000000000000000000000000000000000000000000000000000001000000000
0000000000000000001000011111111000100000000000000000000000000010000000
0000000000000000000000000000000000000000000000000000000000000000000000
0000000000000000000000000000000000000000000000000010000000000000000000
0000000100000001111000000111000000000000000000000001000000000000000000
0000000000000000000000000000000000000000000000000000000000000000000000
0000000000000000000000000000000000000000100000000000000000000000001000
0000000000000010001110000000000000000001100000000000000000000000000000
0000000000000000000000000000000000000000000000000000000000000000000000
0000000000000000000000000000001100000000000000000000000100000000000000
0000100000011110000000000111100100000000000000000000000000000000000000
0000000000000000000000000000000000000000000000000000000000000000000000
0000000000000000000001000000000000000000001110100000000000000000010000
0000011111111110001000100000000000000000000000000000000000000000000000
0000000000000000000000000000000000000000000000000000000000000000000000
0000000000010000000000000000011100000100000000000000000010000000010000
0000001100000100000000000000000000000000000000000000000000000000000000
0000000000000000000000000000000000000000000000000000000000000000000000
0100000000000000001000000001000000000000000000010000001000000000010000
0000100000000000000000000000000000000000000000000000000000000000000000
0000000000000000000000000000000000000000000000000000000000000010000000
0011111100000000100000000000000000000011111100000000001000000000010000
0000000000000000000000000000000000000000000000000000000000000000000000
0000000000000000000000000000000000000000000000000000011111111100000100
0000010000000000010000000000000000000000000100000000000010000000000000
0000000000000000000000000000000000000000000000000000000000000000000000
0000000000000000000000000000000000000000001000000000000001000001100000
0000001110000000000000000000000110000000000000010000000000000000000000
0000000000000000000000000000000000000000000000000000000000000000000000
0000000000000000000000000000000101100000000000001111100000000000011111
0000000000000000000110000000000000000011111100000000000000000000000000
0000000000000000000000000000000000000000000000000000000000000000000000
0000000000000000000001000110000000000000000000000000000111111000000000
0000000110000000000000000000100000110000000000000000000000000000000000
0000000000000000000000000000000000000000000000000000000000000000000000
0000000000100000011000000000000000000000000011111111100000000000011000
0000000000000000010000110011000000000000000000000000000000000000000000
0000000000000000000000000000000000000000000000000000000000000000000001
0000000001100000000000000000000000111111111100000000001000000000000000
0000001000010000001000000000000000000000000000000000000000000000000000
0000000000000000000000000000000000000000000000000000000000010000000000
0110000000000000000000011111111111100000000100000000000000000000010000
1000000110000000000000000000000000000000000000000000000000000000000000
0000000000000000000000000000000000000000000000001000000000000001100000
0000000000000111111111111100000110000000000000000000001000010000011001
0000000000000000000000000000000000000000000000000000000000000000000000
0000000000000000000000000000000000000010000000000000000110000000000000
0011111110111111111110000000000000000000000100001000001000100000000000
0000000000000000000000000000000000000000000000000000000000000000000000
0000000000000000000000000001000000000000000000011100000000000011111100
0011110000000000000000000000000001000100000100010000000000000000000000
0000000000000000000000000000000000000000000000000000000000000000000000
0000000000000000010000000000000000000000111000000001111110000000000000
0000000000000000000000100010000010001000000000000000000000000000000000
0000000000000000000000000000000000000000000000000000000000000000000000
0000001011000000000000000000000001111111100000000000000000000000000000
0000000000000001000001000100000000000000000000000000000000000000000000
0000000000000000000000000000000000000000000000000000000000000000110000
1110000000000000000000000000000000111111111100000000000000000000000000
0000010000100010000000000000000000000000000000000000000000000000000000
0000000000000000000000000000000000000000000000000000010011000001000000
0000000000000000000000010000000000110000000000000000000000000000100001
0001000000000000000000000000000000000000000000000000000000000000000000
0000000000000000000000000000000000000000001000001000010000000000000000
0000000000001000000000000011111000000000000000001110010000100010000000
0000000000000000000000000000000000000000000000000000000000000000000000
0000000000000000000000000000001100000001000010000000000000000000000000
1100000000000000000001111111000001111100011111010011000000000000000000
0000000000000000000000000000000000000000000000000000000000000000000000
0000000000000000000100100000010000010000000000000000000000110000000000
0000000000000000001111100000000000001111000000000000000000000000000000
0000000000000000000000000000000000000000000000000000000000000000000000
0000000000100110000010000010000000000000000001110000000000000000000000
0000000000000000000000000000000000000000000000000000000000000000000000
0000000000000000000000000000000000000000000000000000000000000000000000
1000010000010000100000000000000001100000000000000000000000000000000000
0000000000000000000000000000000000000000000000000000000000000000000000
0000000000000000000000000000000000000000000000000000000000000100001000
0100000100000000000001100000000000000000000000000000000000000000000000
0000000000000000000000000000000000000000000000000000000000000000000000
0000000000000000000000000000000000000000000000000000100010000010000100
0000000011100000000000000000000000000000000000000000000000000000000000
0000000000000000000000000000000000000000000000000000000000000000000000
0000000000000000000000000000000000000000000100010000100000000000111100
0000000000000000000000000000000000000000000000000000000000000000000000
0000000000000000000000000000000000000000000000000000000000000000000000
0000000000000000000000000000000000100010000100111111110000000000000000
0000000000000000000000000000000000000000000000000000000000000000000000
0000000000000000000000000000000000000000000000000000000000000000000000
0000000000000000000000000100010001010000000000000000000000000000000000
0000000000000000000000000000000000000000000000000000000000000000000000
0000000000000000000000000000000000000000000000000000000000000000000000
0000000000000000100100111000000000000000000000000000000000000000000000
0000000000000000000000000000000000000000000000000000000000000000000000
0000000000000000000000000000000000000000000000000000000000000000000000
0000000100110000000000000000000000000000000000000000000000000000000000
0000000000000000000000000000000000000000000000000000000000000000000000
0000000000000000000000000000000000000000000000000000000000000000000011
0000000000000000000000000000000000000000000000000000000000000000000000
0000000000000000000000000000000000000000000000000000000000000000000000
0000000000000000000000000000000000000000000000000000000000000000000000
0000000000000000000000000000000000000000000000000000000000000000000000
0000000000000000000000000000000000000000000000000000000000000000000000
0000000000000000000000000000000000000000000000000000000000000000000000
0000000000000000000000000000000000000000000000000000000000000000000000
0000000000000000000000000000000000000000000000000000000000000000000000
0000000000000000000000000000000000000000000000000000000000000000000000
0000000000000000000000000000000000000000000000000000000000000000000000
0000000000000000000000000000000000000000000000000000000000000000000000
0000000000000000000000000000000000000000000000000000000000000000000000
0000000000000000000000000000000000000000000000000000000000000000000000
0000000000000000000000000000000000000000000000000000000000000000000000
0000000000000000000000000000000000000000000000000000000000000000000000
0000000000000000000000000000000000000000000000000000000000000000000000
0000000000000000000000000000000000000000000000000000000000000000000000
0000000000000000000000000000000000000000000000000000000000000000000000
0000000000000000000000000000000000000000000000000000000000000000000000
0000000000000000000000000000000000000000000000000000000000000000000000
0000000000000000000000000000000000000000000000000000000000000000000000
0000000000000000000000000000000000000000000000000000000000000000000000
0000000000000000000000000000000000000000000000000000000000000000000000
0000000000000000000000000000000000000000000000000000000000000000000000
0000000000000000000000000000000000000000000000000000000000000000000000
0000000000000000000000000000000000000000000000000000000000000000000000
0000000000000000000000000000000000000000000000000000000000000000000000
0000000000000000000000000000000000000000000000000000000000000000000000
0000000000000000000000000000000000000000000000000000000000000000000000
0000000000000000000000000000000000000000000000000000000000000000000000
0000000000000000000000000000000000000000000000000000000000000000000000
0000000000000000000000000000000000000000000000000000000000000000000000
0000000000000000000000000000000000000000000000000000000000000000000000
0000000000000000000000000000000000000000000000000000000000000000000000
0000000000000000000000000000000000000000000000000000000000000000000000
0000000000000000000000000000000000000000000000000000000000000000000000
0000000000000000000000000000000000000000000000000000000000000000000000
0000000000000000000000000000000000000000000000000000000000000000000000
0000000000000000000000000000000000000000000000000000000000000000000000
0000000000000000000000000000000000000000000000000000000000000000000000
0000000000000000000000000000000000000000000000000000000000000000000000
0000000000000000000000000000000000000000000000000000000000000000000000
0000000000000000000000000000000000000000000000000000000000000000000000
0000000000000000000000000000000000000000000000000000000000000000000000
0000000000000000000000000000000000000000000000000000000000000000000000
0000000000000000000000000000000000000000000000000000000000000000000000
0000000000000000000000000000000000000000000000000000000000000000000000
0000000000000000000000000000000000000000000000000000000000000000000000
0000000000000000000000000000000000000000000000000000000000000000000000
0000000000000000000000000000000000000000000000000000000000000000000000
000000000000000000000000000000