P1
# CREATOR: GIMP PNM Filter Version 1.1
154 154
0000000000000000000000000000000000000000000000000000000000000000000000
0000000000000000000000000000000000000000000000000000000000000000000000
0000000000000000000000000000000000000000000000000000000000000000000000
0000000000000000000000000000000000000000000000000000000000000000000000
0000000000000000000000000000000000000000000000000000000000000000000000
0000000000000000000000000000000000000000000000000000000000000000000000
0000000000000000000000000000000000000000000000000000000000000000000000
0000000000000000000000000000000000000000000000000000000000000000000000
0000000000000000000000000000000000000000000000000000000000000000000000
0000000000000000000000000000000000000000000000000000000000000000000000
0000000000000000000000000000000000000000000000000000000000000000000000
0000000000000000000000000000000000000000000000000000000000000000000000
0000000000000000000000000000000000000000000000000000000000000000000000
0000000000000000000000000000000000000000000000000000000000000000000000
0000000000000000000000000000000000000000000000000000000000000000000000
0000000000000000000000000000000000000000000000000000000000000000000000
0000000000000000000000000000000000000000000000000000000000000000000000
0000000000000000000000000000000000000000000000000000000000000000000000
0000000000000000000000000000000000000000000000000000000000000000000000
0000000000000000000000000000000000000000000000000000000000000000000000
0000000000000000000000000000000000000000000000000000000000000000000000
0000000000000000000000000000000000000000000000000000000000000000000000
0000000000000000000000000000000000000000000000000000000000000000000000
0000000000000000000000000000000000000000000000000000000000000000000000
0000000000000000000000000000000000000000000000000000000000000000000000
0000000000000000000000000000000000000000000000000000000000000000000000
0000000000000000000000000000000000000000000000000000000000000000000000
0000000000000000000000000000000000000000000000000000000000000000000000
0000000000000000000000000000000000000000000000000000000000000000000000
0000000000000000000000000000000000000000000000000000000000000000000000
0000000000000000000000000000000000000000000000000000000000000000000000
0000000000000000000000000000000000000000000000000000000000000000000000
0000000000000000000000000000000000000000000000000000000000000000000000
0000000000000000000000000000000000000000000000000000000000000000000000
0000000000000000000000000000000000000000000000000000000000000000000000
0000000000000000000000000000000000000000000000000000000000000000000000
0000000000000000000000000000000000000000000000000000000000000000000000
0000000000000000000000000000000000000000000000000000000000000000000000
0000000000000000000000000000000000000000000000000000000000000000000000
0000000000000000000000000000000000000000000000000000000000000000000000
0000000000000000000000000000000000000000000000000000000000000000000000
0000000000000000000000000000000000000000000000000000000000000000000000
0000000000000000000000000000000000000000000000000000000000000000000000
0000000000000000000000000000000000000000000000000000000000000000000000
0000000000000000000000000000000000000000000000000000000000000000000000
0000000000000000000000000000000000000000000000000000000000000000000000
0000000000000000000000000000000000000000000000000000000000000000000000
0000000000000000000000000000000000000000000000000000000000000000000000
0000000000000000000000000000000000000000000000000000000000000000000000
0000000000000000000000000000000000000000000000000000000000000000000000
0000000000000000000000000000000000000000000000000000000000000000000000
0000000000000000000000000000000000000000000000000000000000000000000000
0000000000000000000000000000000000000000000000000000000000000000000000
0000000000000000000000000000000000000000000000000000000000000000000000
0000000000000000000000000000000000000000000000000000000000000000000000
0000000000000000000000000000000000000000000000000000000000000000000000
0000000000000000000000000000000000000000000000000000000000000000000000
0000000000000000000000000000000000000000000000000000000000000000000000
0000000000000000000000000000000000000000000000000000000000000000000000
0000000000000000000000000000000000000000000000000000000000000000000000
0000000000000000000000000000000000000000000000000000000000000000000000
0000000000000000000000000000000000000000000000000000000000000000000000
0000000000000000000000000000000000000000000000000000000000000000000000
0000000000000000000000000000000000000000000000000000000000000000000000
0000000000000000000000000000000000000000000000000000000000000000000000
0000000000000000000000000000000000000000000000000000000000000000000000
0000000000000000000000000000000000000000000000000000000000000000000000
0000000000000000000000000000000000000000000000000000000000000000000000
0000000000000000000000000000000000000000000000000000000000000000000000
0000000000000000000000000000000000000000000000000000000000000000000000
0000000000000000000000000000000000000000000000000000000000000000000000
0000000000000000000000000000000000000000000000000000000000000000000000
0000000000000000000000000000000000000000000000000000000000000000000000
0000000000000000000000000000000000000000000000000000000000000000000000
0000000000000000000000000000000000000000000000000000000000000000000000
0000000000000000000000000000000000000000000000000000000000000000000000
0000000000000000000000000000000000000000000000000000000000000000000000
0000000000000000000000000000000000000000000000000000000000000000000000
0000000000000000000000000000000000000000000000000000000000000000000000
0000000000000000000000000000000000000000000000000000000000000000000000
0000000000000000000000000000000000000000000000000000000000000000000000
0000000000000000000000000000000000000000000000000000000000000000000000
0000000000000000000000000000000000000000000000000000000000000000000000
0000000000000000000000000000000000000000000000000000000000000000000000
0000000000000000000000000000000000000000000000000000000000000000000000
0000000000000000000000000000000000000000000000000000000000000000000000
0000000000000000000000000000000000000000000000000000000000000000000000
0000000000000000000000000000000000000000000000000000000000000000000000
0000000000000000000000000000000000000000000000000000000000000000000000
0000000000000000000000000000000000000000000000000000000000000000000000
0000000000000000000000000000000000000000000000000000000000000000000000
0000000000000000000000000000000000000000000000000000000000000000000000
0000000000000000000000000000000000000000000000000000000000000000000000
0000000000000000000000000000000000000000000000000000000000000000000000
0000000000000000000000000000000000000000000000000000000000000000000000
0000000000000000000000000000000000000000000000000000000000000000000000
0000000000000000000000000000000000000000000000000000000000000000000000
0000000000000000000000000000000000000000000000000000000000000000000000
0000000000000000000000000000000000000000000000000000000000000000000000
0011111111111111111111111000000111111110000000000000000000000000000000
0000000000001111111100000000001111111110000000000000000000000000000000
0000000000000001000000000000000000000001000001000000100000000000000000
0000000000000000000000000010000000100000000010000000100000000000000000
0000000000000000000000000000100000000000000000000000001000010000001000
0000000000000000000000000000000000000000100000001000000000100000001000
0000000000000000000000000000000000000000001000000000000000000000000010
0001000000100000000000000000000000000000000000000000001000000001000000
0010000000100000000000000000000000000000000000000000000010000000000000
0000000000001000010000001000000000000000000000000000000000000000000010
0000000100000000100000001000000000000000000000000000000000000000000000
1000000000000000000000000010000100000010000000000000000000000000000000
0000000000001000000001000000001000000010000000000000000000000000000000
0000000000000010000000000000000000000000100001000000100000000000000000
0000000000000000000000000010000000001000000010000000100000000000000000
0000000000000000000000000000100000000111111111000000001000010000001000
0000000000000000000000000000000000000000100000000010000000100000001000
0000000000000000000000000000000000000000001000000010000000001000000010
0001000000100000000000000000000000000000000000000000001000000000100000
0010000000100000000000000000000000000000000000000000000010000000100000
0000100000001000010000001000000000000000000000000000000000000000000010
0000000001000000100000001000000000000000000000000000000001111111100000
1000000010000000001000000010000100000010000000000000000000000000000000
0000000000001000000000010000001000000010000000000000000000000000000000
0100000010000010000000100000000010000000100001000000100000000000000000
0000000000000000000000000010000000000100000010000000100000000000000000
0000000000000001000000100000100000001000000000100000001000010000001000
0000000000000000000000000000000000000000100000000000100000100000001000
0000000000000000000000000000010000001000001000000010000000001000000010
0001000000100000000000000000000000000000000000000000001000000000001000
0010000000100000000000000000000000000000000100000010000010000000100000
0000100000001000010000001000000000000000000000000000000000000000000010
0000000000100000100000001000000000000000000000000000000001000000100000
1000000010000000001000000010000100000010000000000000000000000000000000
0000000000001000000000000100001000000010000000000000000000000000000000
0100000010000010000000010000000011111111100001000000100000000000000000
0000000000000000000000000010000000000001000010000000100000000000000000
0000000000000001000000100000100000000010000000000000000000010000001000
0000000000000000000000000000000000000000100000000000001000100000001000
0000000000000000000000000000010000001000001000000000010000000000000000
0001000000100000011111110111111100000000001111111000001000000000000010
0010000000100000001111111111111111110001111100000011111101000000000010
0000000000000000010000001000001000000101000000100000000100000010000010
0000000000001000100000001000000100000000000000000010010000000000000001
0100000000000100000000000000000100000010000010000001010000000100000010
0000001000001000000000000001001000000010000010000000000000000000010100
0000000000000100100000000000100000000000000001000000100001000000010010
0000010000001000000100000010000000000000010010000000100000100000000000
0000000001010000000000000001000110000000000110000000000000010000001000
0100000010001000000100000010000001000000100000000000000100100000001000
0010000000000000000000010100000000000000010000010000000000010000000000
0001000000100010000000100010000001000000100000010000001000000000000000
1010000000100000100000000000000000000101000000000000000100000010000000
0000100000000000010000001001000000010000100000010000001000000100000010
0000000000000010100000001000001000000011111100000001011111000000111111
0000000100000000000100000000000100000010010000000100000100000010000100
0000100000001000000011000000101000000010000010000001000000100000010000
0100000010000000000000100000000000100000000001000000101000000010000001
0000001000010000001000000010000000101000000110000000100000100000010000
0010000001000001000000100000000000000100000000000100000000010000001010
0000001000000100000010000100000010000000100000001010000000000000001000
0010000001000000100000010000010000001000000000000000100000000000100000
0001000000110000000100000001000000100001000000100000001000000010010000
0000000000100000100000010000001000000100000100000010000000000000000100
0000000001000000010000000000000001000000001000001000010000010000000010
0000001001000000000000001000001000000100000010000001000001000000100000
0000000000001000000000001000000100000000000000100000000010000001001000
0001000000001000000010010000000000000010000010000001000000100000010000
0100000010000000000000000001000000000001000001000000000000001000000000
1000000100100000010000000010000000100010000000000000100000100000001111
1100000001000001000000100000000000000000001000000000001000010000000000
0001000000000010000001001000000100000000100000001000100000000000001000
0010000000000000000000010000010000001000000000000000000001000000000010
0001000000000000010000000000010000010010000010000000001000000010001000
0000000000100000100000000000000000000100000100000010000000000000000000
0010000000001000010000000000000100000000000100000100100000100000000010
0000001000010000000000001000001000000000000000000001000001000000100000
1111111110000000010000000010000100000000000001000000000001000000110000
0010000000001000000010000100000000000010000010000000000000000000100000
0100000010000010000000100000000010000000100001000000000000001000000000
0100000000000000100000000010000000100001000000000000100000100000011111
1111111100000001000000100000100000001000000000100000001000010000000000
0000100000000001000000000000010000000000100000001000001000000000001000
0010000001000000000000000000010000001000001000000010000000001000000010
0001000000000000000100000000001000000000000100000000001000000010000010
0000000000100000100000010000000000000000000100000010000010000000100000
0000100000001000010000001100000001000000000010000000000001000000000010
0000001000001000000000001000001000000100000000000000000001000000100000
1000000010000000001000000010000100000010100000001000000000100000000000
0100000000001000000010000001000000000010000010000001000000111111110000
0100000010000010000000100000000010000000100001000000101000000010000000
0010000000000001000000000010000000100000010000000000100000100000010000
0010000001000001000000100000100000001000000000100000001000010000001001
0000000100000000010000000000100000000000100000001000000100000000001000
0010000001000000100000010000010000001000001000000010000000001000000010
0001000000100100000001000000000100000000001000000000001000000010000000
1000000000100000100000010000001000000100000100000010000010000000011111
1111000000001000010000001000100000001000000001000000000010000000000010
0000001000000010000000001000001000000100000010000001000001000000100000
1000000000000000000000000010000100000010001000000010000000010000000000
1000000000001000000010000000100000000010000010000001111111100000010000
0100000011111110000000000000000000000000100001000000100001000000010000
0000100000000100000000000010000000100000000100000000100000100000000000
0000000001000001000000000001100000000000000000000000001000010000001000
0010000001000000001000000001000000000000100000001000000001000000001000
0010000000000000000000010000010000000000011000000000000000000000000010
0001000000100000100000001000000010000000010000000000001000000010000000
0010000000100000100000000000000000000100000100000000000110000000000000
0000000000001000010000001000000100000010000000100000000100000000000010
0000001000000000100000001000001000000000000000000001000001000000000001
0100000000000000000000000100000100000010000001000000100000000100000010
0000000000001000000010000000001000000010000001000000000000000000100000
0010000000000100111111111111111111111110000001111111100000001111111000
0000010000001000000000000011111111100000000001111111100000001111111111
1111111100000000011111111111000000000000000000000000000000000000000000
0000000000000000000100000010000000000000000000000000000000000000000000
0000000000000000000000000000000000000000000000000000000000000000000000
0000000000000000000000000000000001000000100000000000000000000000000000
0000000000000000000000000000000000000000000000000000000000000000000000
0000000000000000000000000000000000000000000000100000001000000000000000
0000000000000000000000000000000000000000000000000000000000000000000000
0000000000000000000000000000000000000000000000000000000000001000000100
0000000000000000000000000000000000000000000000000000000000000000000000
0000000000000000000000000000000000000000000000000000000000000000000000
0000100000010000000000000000000000000000000000000000000000000000000000
0000000000000000000000000000000000000000000000000000000000000000000000
0000000000000000001000000100000000000000000000000000000000000000000000
0000000000000000000000000000000000000000000000000000000000000000000000
0000000000000000000000000000000010000001000000000000000000000000000000
0000000000000000000000000000000000000000000000000000000000000000000000
0000000000000000000000000000000000000000000000100000010000000000000000
0000000000000000000000000000000000000000000000000000000000000000000000
0000000000000000000000000000000000000000000000000000000000010000000100
0000000000000000000000000000000000000000000000000000000000000000000000
0000000000000000000000000000000000000000000000000000000000000000000000
0001000000100000000000000000000000000000000000000000000000000000000000
0000000000000000000000000000000000000000000000000000000000000000000000
0000000000000000010000001000000000000000000000000000000000000000000000
0000000000000000000000000000000000000000000000000000000000000000000000
0000000000000000000000000000000111111110000000000000000000000000000000
0000000000000000000000000000000000000000000000000000000000000000000000
0000000000000000000000000000000000000000000000000000000000000000000000
0000000000000000000000000000000000000000000000000000000000000000000000
0000000000000000000000000000000000000000000000000000000000000000000000
0000000000000000000000000000000000000000000000000000000000000000000000
0000000000000000000000000000000000000000000000000000000000000000000000
0000000000000000000000000000000000000000000000000000000000000000000000
0000000000000000000000000000000000000000000000000000000000000000000000
0000000000000000000000000000000000000000000000000000000000000000000000
0000000000000000000000000000000000000000000000000000000000000000000000
0000000000000000000000000000000000000000000000000000000000000000000000
0000000000000000000000000000000000000000000000000000000000000000000000
0000000000000000000000000000000000000000000000000000000000000000000000
0000000000000000000000000000000000000000000000000000000000000000000000
0000000000000000000000000000000000000000000000000000000000000000000000
0000000000000000000000000000000000000000000000000000000000000000000000
0000000000000000000000000000000000000000000000000000000000000000000000
0000000000000000000000000000000000000000000000000000000000000000000000
0000000000000000000000000000000000000000000000000000000000000000000000
0000000000000000000000000000000000000000000000000000000000000000000000
0000000000000000000000000000000000000000000000000000000000000000000000
0000000000000000000000000000000000000000000000000000000000000000000000
0000000000000000000000000000000000000000000000000000000000000000000000
0000000000000000000000000000000000000000000000000000000000000000000000
0000000000000000000000000000000000000000000000000000000000000000000000
0000000000000000000000000000000000000000000000000000000000000000000000
0000000000000000000000000000000000000000000000000000000000000000000000
0000000000000000000000000000000000000000000000000000000000000000000000
0000000000000000000000000000000000000000000000000000000000000000000000
0000000000000000000000000000000000000000000000000000000000000000000000
0000000000000000000000000000000000000000000000000000000000000000000000
0000000000000000000000000000000000000000000000000000000000000000000000
0000000000000000000000000000000000000000000000000000000000000000000000
0000000000000000000000000000000000000000000000000000000000000000000000
0000000000000000000000000000000000000000000000000000000000000000000000
0000000000000000000000000000000000000000000000000000000000000000000000
0000000000000000000000000000000000000000000000000000000000000000000000
0000000000000000000000000000000000000000000000000000000000000000000000
0000000000000000000000000000000000000000000000000000000000000000000000
0000000000000000000000000000000000000000000000000000000000000000000000
0000000000000000000000000000000000000000000000000000000000000000000000
0000000000000000000000000000000000000000000000000000000000000000000000
0000000000000000000000000000000000000000000000000000000000000000000000
0000000000000000000000000000000000000000000000000000000000000000000000
0000000000000000000000000000000000000000000000000000000000000000000000
0000000000000000000000000000000000000000000000000000000000000000000000
0000000000000000000000000000000000000000000000000000000000000000000000
0000000000000000000000000000000000000000000000000000000000000000000000
0000000000000000000000000000000000000000000000000000000000000000000000
0000000000000000000000000000000000000000000000000000000000000000000000
0000000000000000000000000000000000000000000000000000000000000000000000
0000000000000000000000000000000000000000000000000000000000000000000000
0000000000000000000000000000000000000000000000000000000000000000000000
0000000000000000000000000000000000000000000000000000000000000000000000
0000000000000000000000000000000000000000000000000000000000000000000000
0000000000000000000000000000000000000000000000000000000000000000000000
0000000000000000000000000000000000000000000000000000000000000000000000
0000000000000000000000000000000000000000000000000000000000000000000000
0000000000000000000000000000000000000000000000000000000000000000000000
0000000000000000000000000000000000000000000000000000000000000000000000
0000000000000000000000000000000000000000000000000000000000000000000000
0000000000000000000000000000000000000000000000000000000000000000000000
0000000000000000000000000000000000000000000000000000000000000000000000
0000000000000000000000000000000000000000000000000000000000000000000000
0000000000000000000000000000000000000000000000000000000000000000000000
0000000000000000000000000000000000000000000000000000000000000000000000
0000000000000000000000000000000000000000000000000000000000000000000000
0000000000000000000000000000000000000000000000000000000000000000000000
0000000000000000000000000000000000000000000000000000000000000000000000
0000000000000000000000000000000000000000000000000000000000000000000000
0000000000000000000000000000000000000000000000000000000000000000000000
0000000000000000000000000000000000000000000000000000000000000000000000
0000000000000000000000000000000000000000000000000000000000000000000000
0000000000000000000000000000000000000000000000000000000000000000000000
0000000000000000000000000000000000000000000000000000000000000000000000
0000000000000000000000000000000000000000000000000000000000000000000000
0000000000000000000000000000000000000000000000000000000000000000000000
0000000000000000000000000000000000000000000000000000000000000000000000
0000000000000000000000000000000000000000000000000000000000000000000000
0000000000000000000000000000000000000000000000000000000000000000000000
0000000000000000000000000000000000000000000000000000000000000000000000
0000000000000000000000000000000000000000000000000000000000000000000000
0000000000000000000000000000000000000000000000000000000000000000000000
0000000000000000000000000000000000000000000000000000000000000000000000
0000000000000000000000000000000000000000000000000000000000000000000000
0000000000000000000000000000000000000000000000000000000000000000000000
0000000000000000000000000000000000000000000000000000000000000000000000
0000000000000000000000000000000000000000000000000000000000000000000000
0000000000000000000000000000000000000000000000000000000000000000000000
0000000000000000000000000000000000000000000000000000000000000000000000
0000000000000000000000000000000000000000000000000000000000000000000000
0000000000000000000000000000000000000000000000000000000000000000000000
0000000000000000000000000000000000000000000000000000000000000000000000
0000000000000000000000000000000000000000000000000000000000000000000000
0000000000000000000000000000000000000000000000000000000000000000000000
0000000000000000000000000000000000000000000000000000000000000000000000
0000000000000000000000000000000000000000000000000000000000000000000000
0000000000000000000000000000000000000000000000000000000000000000000000
0000000000000000000000000000000000000000000000000000000000000000000000
00000000000000000000000000000000000000000000000000000000