P1
154 64
0011111111111111111111111000000111111110000000000000000000000000000000
0000000000001111111100000000001111111110000000000000000000000000000000
0000000000000001100000000000000000000011000001000000100000000000000000
0000000000000000000000000010000001100000000010000000100000000000000000
0000000000000000000000000000110000000000000000000000011000010000001000
0000000000000000000000000000000000000000100000001000000000100000001000
0000000000000000000000000000000000000000001000000000000000000000000010
0001000000100000000000000000000000000000000000000000001000000011000000
0010000000100000000000000000000000000000000000000000000010000000000000
0000000000001000010000001000000000000000000000000000000000000000000010
0000000100000000100000001000000000000000000000000000000000000000000000
1000000000000000000000000010000100000010000000000000000000000000000000
0000000000001000000001000000001000000010000000000000000000000000000000
0000000000000010000000000000000000000000100001000000100000000000000000
0000000000000000000000000010000000011000000010000000100000000000000000
0000000000000000000000000000100000001111111111100000001000010000001000
0000000000000000000000000000000000000000100000000010000000100000001000
0000000000000000000000000000000000000000001000000010000000001000000010
0001000000100000000000000000000000000000000000000000001000000000100000
0010000000100000000000000000000000000000000000000000000010000000100000
0000100000001000010000001000000000000000000000000000000000000000000010
0000000011000000100000001000000000000000000000000000000001111111100000
1000000010000000001000000010000100000010000000000000000000000000000000
0000000000001000000000010000001000000010000000000000000000000000000000
0100000010000010000000100000000010000000100001000000100000000000000000
0000000000000000000000000010000000000100000010000000100000000000000000
0000000000000001000000100000100000001000000000100000001000010000001000
0000000000000000000000000000000000000000100000000001100000100000001000
0000000000000000000000000000010000001000001000000010000000001000000010
0001000000100000000000000000000000000000000000000000001000000000001000
0010000000100000000000000000000000000000000100000010000010000000100000
0000100000001000010000001000000000000000000000000000000000000000000010
0000000000100000100000001000000000000000000000000000000001000000100000
1000000010000000001000000010000100000010000000000000000000000000000000
0000000000001000000000001100001000000010000000000000000000000000000000
0100000010000010000000110000000011111111100001000000100000000000000000
0000000000000000000000000010000000000001000010000000100000000000000000
0000000000000001000000100000100000000110000000000000000000010000001000
0000000000000000000000000000000000000000100000000000011000100000001000
0000000000000000000000000000010000001000001100000000110000000000000000
0001000000100000011111110111111110000000011111111000001000000000000010
0010000000100000001111111111111111110001111100000011111101000000000110
0000000000000000010000001000001100000101000000100000000100000010000010
0000000000001000100000001000000110000000000000000110010000000000000001
0110000000001100000000000000000100000010000010000001011000001100000011
0000011000001000000000000011001000000010000011000000000000000000110100
0000000000000100110000000001100000000000000001000000100001100000110010
0000010000001000000100000010000000000000010010000000100000100000000000
0000000001010000000000000001000111000000001110000000000000010000001000
0100000010001000000100000010000001000000100000000000000100100000001000
0010000000000000000000010100000000000000010000011000000000110000000000
0001000000100011000001100010000001000000100000010000001000000000000001
1010000000100000100000000000000000000101000000000000000100000011000000
0001100000000000010000001001100000010000110000010000001000001100000010
0000000000000010100000001000001000000111111110000001011111000000111111
0000000110000000001100000000000100000010010000001100000100000110000110
0000100000001000000011100000101000000010000010000001000000100000010000
0100000010000000000000110000000001100000000001000000101100000010000001
0000001000010000001000000010000000101000001110000000100000100000010000
0010000001000001000000100000000000000110000000001100000000010000001010
0000011000000100000010000100000010000000100000001011000000000000001000
0010000001000000100000010000010000001000000000000000110000000001100000
0001000000111000000100000001100000100001000001100000001000000010010000
0000000000100000100000010000001000000100000100000010000000000000000110
0000000011000000010000000000000011000000001000001000010000010000000010
0000001001000000000000001000001000000100000010000001000001000000100000
0000000000001100000000011000000100000000000000100000000010000011001100
0001000000001000000010011000000000000010000010000001000000100000010000
0100000010000000000000000001100000000011000001000000000000011000000000
1000000100100000010000000010000000100010000000000000100000100000011111
1110000001000001000000100000000000000000001100000000011000010000000000
0001000000000011000001001000001100000000100000001000100000000000001000
0010000000000000000000010000010000001000000000000000000001100000000010
0001000000000000010000000000010000010010000010000000001000000010001100
0000000000100000100000000000000000000100000100000010000000000000000000
0011000000001000010000000000000100000000000100000100100000100000000010
0000001000010000000000001000001000000000000000000011000001000000100000
1111111110000000011000000010000100000000000001000000000001000001111000
0010000000001000000010000100000000000010000010000000000000000001100000
0100000010000010000000100000000010000000100001000000000000011000000000
0100000000000001100000000010000000100001100000000000100000100000011111
1111111100000001000000100000100000001000000000100000001000010000000000
0000100000000001100000000000010000000000100000001000001000000000001000
0010000001000000000000000000010000001000001000000010000000001000000010
0001000000000000001100000000001000000000000100000000001000000010000010
0000000000100000100000010000000000000000000100000010000010000000100000
0000100000001000010000001110000001000000000010000000000001000000000010
0000001000001100000000001000001000000100000000000000000001000000100000
1000000010000000001000000010000100000010100000011000000000100000000000
0100000000001000000010000001000000000010000010000001000000111111110000
0100000010000010000000100000000010000000100001000000101100000010000000
0011000000000011000000000010000000100000010000000000100000100000010000
0010000001000001000000100000100000001000000000100000001000010000001001
0000001100000000010000000000100000000000100000001000000110000000001000
0010000001000000100000010000010000001000001000000010000000001000000010
0001000000100110000001000000000100000000001000000000001000000010000000
1000000000100000100000010000001000000100000100000010000010000000111111
1111100000001000010000001000100000011000000001000000000010000000000010
0000001000000010000000001000001000000100000010000001000001000000100000
1000000000000000000000000010000100000010001100000010000000011000000001
1000000000001000000010000000110000000010000010000001111111100000010000
0100000011111110000000000000000000000000100001000000100001100000110000
0000100000000100000000000010000000100000000100000000100000100000000000
0000000001000001000000000001100000000000000000000000001000010000001000
0010000001000000001000000001000000000000100000001000000001100000001000
0010000000000000000000010000010000000000011000000000000000000000000010
0001000000100000110000011000000010000000010000000000001000000010000000
0010000000100000100000000000000000000100000100000000000111000000000000
0000000000011000010000001000000100000010000000110000001100000000000010
0000001000000000100000001000001100000000000000000011000001100000000001
0110000000000000000000001100000100000010000001100000100000000100000010
0000000000001000000010000000001100000010000001100000000000000001100000
0011000000000100111111111111111111111110000001111111100000001111111000
0000010000001000000000000011111111100000000001111111100000001111111111
1111111100000000011111111111000000000000000000000000000000000000000000
0000000000000000000100000010000000000000000000000000000000000000000000
0000000000000000000000000000000000000000000000000000000000000000000000
0000000000000000000000000000000001000000100000000000000000000000000000
0000000000000000000000000000000000000000000000000000000000000000000000
0000000000000000000000000000000000000000000000110000011000000000000000
0000000000000000000000000000000000000000000000000000000000000000000000
0000000000000000000000000000000000000000000000000000000000001000000100
0000000000000000000000000000000000000000000000000000000000000000000000
0000000000000000000000000000000000000000000000000000000000000000000000
0000100000010000000000000000000000000000000000000000000000000000000000
0000000000000000000000000000000000000000000000000000000000000000000000
0000000000000000001000000100000000000000000000000000000000000000000000
0000000000000000000000000000000000000000000000000000000000000000000000
0000000000000000000000000000000010000001000000000000000000000000000000
0000000000000000000000000000000000000000000000000000000000000000000000
0000000000000000000000000000000000000000000000100000010000000000000000
0000000000000000000000000000000000000000000000000000000000000000000000
0000000000000000000000000000000000000000000000000000000000011000001100
0000000000000000000000000000000000000000000000000000000000000000000000
0000000000000000000000000000000000000000000000000000000000000000000000
0001000000100000000000000000000000000000000000000000000000000000000000
0000000000000000000000000000000000000000000000000000000000000000000000
0000000000000000010000001000000000000000000000000000000000000000000000
0000000000000000000000000000000000000000000000000000000000000000000000
0000000000000000000000000000000111111110000000000000000000000000000000
00000000000000000000000000000000000000000000000000000000