P1
121 121
0000000000000000000000000000000000000000000000000000000000000000000000
0000000000010100000000000000000000000000000000000000000000000000000000
0000000000000000000000000000000000000000000000000000000000000110111000
0000000000000000000000000000000000000000000000000000000000000000000000
0000000000000000000000000000000000000000011000011000000000000000000000
0000000000000000000000000000000000000000000000000000000111111100000000
0000000000000000000001100000011000000000000000000000000000000000000000
0000000000000000000000000000000000011000001100000000000000000000000000
0010000000011000000000000000000000000011110000000000000000000000000000
0000000000000000100000001100000000000000000000000000110000000001100000
0000000000000000011100110000000000000000000000000000000000000000001100
0000001000000000000000000000000011000000000001110000000000000000000110
0000110000000000000000000000000000000000000000010000000001000000000000
0000000000001100000000000000110000000000000000001000000011000000000000
0000000000000000000000000000100000000110000000000000000000000011000000
0000000000110000000000000000010000000010000000000000000000000000000000
0000000001100000001000000000000000000000001100000000000000000011000000
0000000000100000000100000000000000000000000000000000000000000100000011
0000000000000000000000110000000000000000000011100000000000000100000000
1000000000000000000000000000000000000000001100001100000000000000000000
0011000000000000000000000001100000000000001000000011000000000000000000
0000000000000000000000001111110000000000000000000000110000000000000000
0000000001100000000000011000001100000000000000000000000000000000000000
0000000000000000000000000000000001000000000000000000000000000110000000
0000011000110000000000000000000000000000000000000000000000000000000000
0000000000000110000000000000000000000000000111000000000001111100000000
0000000000000000000000000000000000000000000000000000000000000001100000
0000000000000000000000000011000000000000000000000000000000000000000000
0000000011111100000000000000000000000000000110000000000000000000000000
0000000011000000000000000000000000000000000000000000000000110000110000
0000000000111100000000011000000000000000000000000000000000001100000000
0000000000000000000000000000000000000011000000110000000000001100100000
0001100000000000000000000000000000000000001100000000000000000000000000
0000000000000000000100000000110000000000010001100000011000000000000000
0000000000000000000000001110000000000000000000000000000000000000000000
1000000000100000000000110001000001100000000000000000000000000000000000
0000000100000000000000000000000000000000000000000001000000000100000000
0000100011000110000000000000000000000000000000000000000001100000000000
0000000000000000000000000000000010000000011000000000000110001101100000
0000000000000000000000000000000000000010000000000000000000000000000000
0000000000000110000000100000000000000110001110000000000000000000000000
0000000000000000001100000000000000000000000000000000000000000000011000
0111000000000000000100001100000000000000000000000000000000000000000001
0000000000000000000000000000000000000000000000011111100000000000011111
1000000000000000000000000000000000000000000000000110000000000000000000
0000000000000000000000000000000000000000001111100000000000000000000000
0000000000000000000000000000011000000000000000000000000000000000000000
0000000000000000000011110000000011100000000000000000000000000000000000
0000000000100000000000000000000000000000000000000000000000000000000111
1100000111111101100000000000000000000000000000000000000000001100000000
0000000000000000000000000000000000000000000000011000001111100000000110
0000000000000000000000000000000000000000010000000000000000000000000000
0000000000000000000000000011100011110000000000000110000000000000000000
0000000000000000000001100000000000000000000000000000000000000000000000
0000001100011100000000000000000110000000000000000000000000000000000000
0110000000000000000000000000000000000000000000000000000111001110000000
0000000000000110000000000000000000000000000000000000100000000000000000
0000000000000000000000000000000000011000110000000000000000000000011000
0000000000000000000000000000000011000000000000000000000000000000000000
0000000000000001100111000000000000000000000000011000000000000000000000
0000000000000100000000000000000000000000000000000000000000000000011001
1000000000000000000000000000011100000000000000000000000000000001100000
1100000000000000000000000000000000000000000001100110000000000000000000
0000000000001110000000000000000000000000000010111111100000000000000000
0000000000000000000000000110011000000000000000000000000000000000011000
0000000000000000000000000111000001000000000000000000000011111100000000
0000001001100000000000000000000000000000000000011110000000000000000000
0000000000000010000000111111000000001100001100000000000011011000000000
0000000000000000000000000000000111100000000000000000000000000000010000
0011000011000000010000001100000000000100100000000000000000000000000000
0000000000000001111000000000000000000000011111100000110000001000000110
0000001000000000011011000000000000000000000000000000000000000000000001
1111111111000001100011100000000001000000010000001000000001000000000010
0100000000000000000000000000000000000000000000000000000000001111111110
0100000000000010000000100000010000000010000000001101100000000000000000
0000000000000000000000000000000000000000000000000100100000000000010000
0001000000110000000100000000010010000000000000000000000000000000000000
0000000000000000000000000000001001100000000000110000001000000011000001
1000000000100100000000000000000000000000000000000000000000000000000000
0000000000011001000000000000100000010000000011000110000000000101100000
0000000000000001111111000000000000000011111000000000000000000001001000
0000000001110001100000000011111000000000011010000000000000000000011000
0011000000000000011100011100000000000000000010010000000000000011111000
0000000000000000000000100100000000000000000001100000001000000000000110
0000001100000000000000000100100000000000000000000000000000000000000000
0001001000000000000000000010000000010000000000001000000000100000000000
0000001001000000000000000000000000000000000000000000001001000000000000
0000000100000000100000000000010000000001000000000000000001001000000000
0000000000000000000000000000000000010010000000000000000000100000000100
0000000000100000000010000000000000000010010000000000000000000000000000
0000000000000000100100000000000000000001000000001000000000000110000000
0100000000000000000100100000000000000000000000000000000000000000000100
1000000000000000000010000000010000000000000100000000100000000000000000
1001000000000000000000000000000000000000000000001101100000000000000000
0110000001100000000000001100000011000000000000000001001000000000000000
0000000000000000000000000000001001000000000000000000011100011000000000
0000001100011100000000000000000010010000000000000000000000000000000000
0001100000010010000000000000000000001111100000000000000000111110000000
0000000000001100100000001100000000000000000000000000011100000011010000
0000000000000000000000000000000000000000000000000000000000000001001100
0000011000000000000000000000000000101000000010110000000000000000000000
0000000000000000000000000000000000000000000110010000000011000000000000
0000000000000001010000000110110000000000000000000000000000000000000000
0000000000000000000000001001100000000111000000000000000000000000001010
0000000100100000000000000000000000000000000000000000000000000000000000
0000110010000000001010000000000000000000000000110100000000110110000000
0000000000011100000000000000000001111000000000000000001100110000000001
0100000000000000000000000001001000000000110110000000000000000010111000
0000000000000110010000000000000000110011000000000010110000000000000000
0000001110010000000000110110000000000000000100011100000000000011100110
0000000000000011001100000000000100110000000000000000111111000011000000
0000110111000000000000001110001110000000111100011000000000000000110011
0000000000011000111111000000000011000000000011000000000011001100000000
0000000110000111111111000001100000000000000011001100000000000110000000
0011100000000111000011100011000000000011001100000000000000011100000000
0000001110000000000000001100110000000000011000111000011100000000001111
1101100011000000000010001100000000000000001111000000001111000000000000
0000110001000000000001100011011111100000000000000000000110001100000001
1100001000000000000000000011111111110000000000000000000110001110000000
0110001100000000000000000000000000000110001100001110000111000000000000
0000000000000000000000000000000000000111000111000001100011000000000000
0000000000000000000110001101110001111000000000000000000000000000000000
0000000000000000000011100011000110001100000000000000000000000000000000
0110001110000110000000000000000000000000000000000000000000000000000000
0001110011111000110000000000000000000000000000000000011000000011100000
0000000000000000000000000000000000000000000000000000000011100110001100
0000000000000000000000000000000000010000011100000000000000000000000000
0000000000000000000000000000000000000001100000110000000000000000000000
0000000000000000100001100000000000000000000000000000000000000000000000
0000000000000000000001110001000000000000000000000000000000000000001100
1110000000000000000000000000000000000000000000000000000000000000000000
0000110011000000000000000000000000000000000000110011000000000000000000
0000000000000000000000000000000000000000000000000000000011001100000000
0000000000000000000000000011001100000000000000000000000000000000000000
0000000000000000000000000000000000000011001100000000000000000000000000
0000001100110000000000000000000000000000000000000000000000000000000000
0000000000000000000011001100000000000000000000000000000001001100000000
0000000000000000000000000000000000000000000000000000000000000000000000
0011001100000000000000000000000000000110010000000000000000000000000000
0000000000000000000000000000000000000000000000000000001100100000000000
0000000000000000011001100000000000000000000000000000000000000000000000
0000000000000000000000000000000000001101100000000000000000000000000010
0110000000000000000000000000000000000000000011110000000000000000000000
0000000000000000001001100000000000001111000000001100100000000000000000
0000000000000000000000011100110000000000000000000000000000000000000001
1001000000000000110011100000010011000000000000000000000000000000000000
0001100000110000000000000000000000000000000000000001001100000000001100
0001100000100100000000000000000000000000000000000000001000000011000000
0000000000000000000000000000000011001000000000010000000110001101100000
0000000000000000000000000000000000010000000010000000000000000000000000
0000000000000010010000000000100000000100010010000000000000000000000000
0000000000000000100000000100000000000000000000000000000000000000011011
0000000001000000001000100100000000000000000000000000000000000000000100
0000001000000000000000000000000000000000000000010010000000001000000001
0011011000000000000000000000000000000000000000001000000001000000000000
0000000000000000000000000000100100000000010000000110010010000000000000
0000000000000000000000000000011000000110000000000000000000000000000000
0000000001001000000000110000011000100100000000000000000000000000000000
0000000000011000011000000000000000000000000000000000000000001101000000
0000110011100001001000000000000000000000000000000000000000000001111110
0000000000000000000000000000000000000000001010000000000011110000001001
0000000000000000000000000000000000000000000000000000000000000000000000
0000000000000000000000010100000000000000000000010010000000000000000000
0000000000000000000000000000000000000000000000000000000000000000000000
0000101000000000000000000000100100000000000000000000000000000000000000
0000000000000000000000000000000000000000000000000000000101000000000000
0000000001001000000000000000000000000000000000000000000000000000000000
0000000000000000000000000000000000001010000000000000000000001001000000
0000000000000000000000000000000000000000000000000000000000000000000000
0000000000000000010100000000000000000000010010000000000000000000000000
0000000000000000000000000000000000000000000000000000000000000000000010
1000000000000000000000100100000000000000000000000000000000000000000000
0000000000000000000000000000000000000000000000001101000000000000000000
0001001000000000000000000000000000000000000000000000000000000000000000
0000000000000000000000000000010010000000000000000000001001000000000000
0000000000000000000000000000000011111000000000000000000000000000000000
0000000000100100000000000000000000010010000000000000000000000000000000
0000000000001100011100000000000000000000000000000000000000000100100000
0000000000000000110110000000000000000000000000000000000000000011000000
1100000000000000000000000000000000000000001001000000000000000000000010
0100000000000000000000000000000000000000000100000000100000000000000000
0000000000000000000000110110000000000000000000000100100000000000000000
0000000000000000000000001000000001000000000000000000000000000000000000
0001001000000000000000000000001101100000000000000000000000000000000000
0000010000000010000000000000000000000000000000000000001001000000000000
0000000000001001000000000000000000000000000000000000000010000000010000
0000000000000000000000000000000000110110000000000000000000000001101100
0000000000000000000000000000000000000100000000100000000000000000000000
0000000000000011001000000000000000000000000001001100000000000000000000
0000000000000000001100000011000000000000000000000000000000000000010011
0000000000000000000000000011001100000000000000000000000000000000000000
1100011100000000000000000000000000000000000001101100000000000000000000
0000000011001100000000000000000000000000000000000000111110000000000000
0000000000000000000000000110010000000000000000000000000000001100111000
0000000000000000000000000000000000000000000000000000000000000000000000
0000111001100000000000000000000000000000001100011000000000000000000000
0000000000000000000000000000000000000000000000000000001100011000000000
0000000000000000000000001100011110000000000000000000000000000000000000
0000000000000000000000000000000001110011100000000000000000000000000000
0000001110000111100000000000000000000000000000000000000000000000000000
0000000000011110001100000000000000000000000000000000000000011100000111
1111000000000000000000000000000000000000000000000000000000111110000111
0000000000000000000000000000000000000000001111000000001111111111111111
1111000000000000000000000000000011111111000001111000000000000000000000
0000000000000000000000000011110000000000000000000000001111111111111111
1111111111111100000000011110000000000000000000000000000000000000000000
0000000000111111000000000000000000000000000000000000000000000000000011
1111100000000000000000000000000000000000000000000000000000000000001111
1111111111111111111111111111111111111111111111111100000000000000000000
00000000000