P1
# CREATOR: GIMP PNM Filter Version 1.1
121 121
0000000000000000000000000000000000000000000000000000000000000000000000
0000000000011100000000000000000000000000000000000000000000000000000000
0000000000000000000000000000000000000000000000000000000000000111111000
0000000000000000000000000000000000000000000000000000000000000000000000
0000000000000000000000000000000000000000011111111000000000000000000000
0000000000000000000000000000000000000000000000000000000111111100000000
0000000000000000000001111111111000000000000000000000000000000000000000
0000000000000000000000000000000000011111111100000000000000000000000000
0011111111111000000000000000000000000011110000000000000000000000000000
0000000000000000111111111100000000000000000000000000111111111111100000
0000000000000000011111110000000000000000000000000000000000000000001111
1111111000000000000000000000000011111111111111110000000000000000000111
1111110000000000000000000000000000000000000000011111111111000000000000
0000000000001111111111111111110000000000000000001111111111000000000000
0000000000000000000000000000111111111110000000000000000000000011111111
1111111111110000000000000000011111111110000000000000000000000000000000
0000000001111111111000000000000000000000001111111111111111111111000000
0000000000111111111100000000000000000000000000000000000000000111111111
0000000000000000000000111111111111111111111111100000000000000111111111
1000000000000000000000000000000000000000001111111100000000000000000000
0011111111111111111111111111100000000000001111111111000000000000000000
0000000000000000000000001111110000000000000000000000111111111111111111
1111111111100000000000011111111100000000000000000000000000000000000000
0000000000000000000000000000000001111111111111111111111111111110000000
0000011111110000000000000000000000000000000000000000000000000000000000
0000000000000111111111111111111111111111111111000000000001111100000000
0000000000000000000000000000000000000000000000000000000000000001111111
1111111111111111111111111111000000000000000000000000000000000000000000
0000000011111100000000000000000000000000000111111111111111111111111111
1111111111000000000000000000000000000000000000000000000000111111110000
0000000000111100000000011111111111111111111111111111111111111100000000
0000000000000000000000000000000000000011111111110000000000001111100000
0001111111111111111111111111111111111111111100000000000000000000000000
0000000000000000000111111111110000000000011111100000011111111111111111
1111111111111111111111111110000000000000000000000000000000000000000000
1111111111100000000000111111000001111111111111111111111111111111111111
1111111100000000000000000000000000000000000000000001111111111100000000
0000111111000111111111111111111111111111111111111111111111100000000000
0000000000000000000000000000000011111111111000000000000111111101111111
1111111111111111111111111111111111111110000000000000000000000000000000
0000000000000111111111100000000000000111111111111111111111111111111111
1111111111111111111100000000000000000000000000000000000000000000011111
1111000000000000000111111111111111111111111111111111111111111111111111
0000000000000000000000000000000000000000000000011111100000000000011111
1111111111111111111111111111111111111111111111111110000000000000000000
0000000000000000000000000000000000000000001111111111111111111111111111
1111111111111111111111111111111000000000000000000000000000000000000000
0000000000000000000011111111111111111111111111111111111111111111111111
1111111111100000000000000000000000000000000000000000000000000000000111
1111111111111101111111111111111111111111111111111111111111111100000000
0000000000000000000000000000000000000000000000011111111111100000000111
1111111111111111111111111111111111111111110000000000000000000000000000
0000000000000000000000000011111111110000000000000111111111111111111111
1111111111111111111111100000000000000000000000000000000000000000000000
0000001111111100000000000000000111111111111111111111111111111111111111
1110000000000000000000000000000000000000000000000000000111111110000000
0000000000000111111111111111111111111111111111111111100000000000000000
0000000000000000000000000000000000011111110000000000000000000000011111
1111111111111111111111111111111111000000000000000000000000000000000000
0000000000000001111111000000000000000000000000011111111111111111111111
1111111111111100000000000000000000000000000000000000000000000000011111
1000000000000000000000000000011111111111111111111111111111111111100000
1100000000000000000000000000000000000000000001111110000000000000000000
0000000000001111111111111111111111111111111110111111100000000000000000
0000000000000000000000000111111000000000000000000000000000000000011111
1111111111111111111111111111111111000000000000000000000011111100000000
0000001111100000000000000000000000000000000000011111111111111111111111
1111111111111110000000111111000000001111111100000000000011111000000000
0000000000000000000000000000000111111111111111111111111111111111110000
0011111111000000011111111100000000000111100000000000000000000000000000
0000000000000001111111111111111111111111111111100000111111111000000111
1111111000000000011111000000000000000000000000000000000000000000000001
1111111111111111111111100000000001111111110000001111111111000000000011
1100000000000000000000000000000000000000000000000000000000001111111111
1100000000000011111111100000011111111110000000001111100000000000000000
0000000000000000000000000000000000000000000000000111100000000000011111
1111000000111111111100000000011110000000000000000000000000000000000000
0000000000000000000000000000001111100000000000111111111000000011111111
1000000000111100000000000000000000000000000000000000000000000000000000
0000000000011111000000000000111111110000000011111110000000000111100000
0000000000000001111111000000000000000011111000000000000000000001111000
0000000001111111100000000011111000000000011110000000000000000000011111
1111000000000000011111111100000000000000000011110000000000000011111000
0000000000000000000000111100000000000000000001111111111000000000000111
1111111100000000000000000111100000000000000000000000000000000000000000
0001111000000000000000000011111111110000000000001111111111100000000000
0000001111000000000000000000000000000000000000000000001111000000000000
0000000111111111100000000000011111111111000000000000000001111000000000
0000000000000000000000000000000000011110000000000000000000111111111100
0000000000111111111110000000000000000011110000000000000000000000000000
0000000000000000111100000000000000000001111111111000000000000111111111
1100000000000000000111100000000000000000000000000000000000000000000111
1000000000000000000011111111110000000000000111111111100000000000000000
1111000000000000000000000000000000000000000000001111100000000000000000
0111111111100000000000001111111111000000000000000001111000000000000000
0000000000000000000000000000001111000000000000000000011111111000000000
0000001111111100000000000000000011110000000000000000000000000000000000
0001100000011110000000000000000000001111100000000000000000111110000000
0000000000001111100000001100000000000000000000000000011100000011110000
0000000000000000000000000000000000000000000000000000000000000001111100
0000011000000000000000000000000000111000000011110000000000000000000000
0000000000000000000000000000000000000000000111110000000011000000000000
0000000000000001110000000111110000000000000000000000000000000000000000
0000000000000000000000001111100000000111000000000000000000000000001110
0000000111100000000000000000000000000000000000000000000000000000000000
0000111110000000001110000000000000000000000000111100000000111110000000
0000000000011100000000000000000001111000000000000000001111110000000001
1100000000000000000000000001111000000000111110000000000000000011111000
0000000000000111110000000000000000111111000000000011110000000000000000
0000001111110000000000111110000000000000000111111100000000000011111110
0000000000000011111100000000000111110000000000000000111111111111000000
0000111111000000000000001111111110000000111111111000000000000000111111
0000000000011111111111000000000011111111111111000000000011111100000000
0000000111111111111111111111100000000000000011111100000000000111111111
1111100000000111111111111111000000000011111100000000000000011111111111
1111111110000000000000001111110000000000011111111111111100000000001111
1101111111000000000011111100000000000000001111111111111111000000000000
0000111111000000000001111111011111100000000000000000000111111100000001
1111111000000000000000000011111111110000000000000000000111111110000000
0111111100000000000000000000000000000111111100001111111111000000000000
0000000000000000000000000000000000000111111111000001111111000000000000
0000000000000000000111111101111111111000000000000000000000000000000000
0000000000000000000011111111000111111100000000000000000000000000000000
0111111111111110000000000000000000000000000000000000000000000000000000
0001111111111111110000000000000000000000000000000000011111111111100000
0000000000000000000000000000000000000000000000000000000011111111111100
0000000000000000000000000000000000011111111100000000000000000000000000
0000000000000000000000000000000000000001111111110000000000000000000000
0000000000000000111111100000000000000000000000000000000000000000000000
0000000000000000000001111111000000000000000000000000000000000000001111
1110000000000000000000000000000000000000000000000000000000000000000000
0000111111000000000000000000000000000000000000111111000000000000000000
0000000000000000000000000000000000000000000000000000000011111100000000
0000000000000000000000000011111100000000000000000000000000000000000000
0000000000000000000000000000000000000011111100000000000000000000000000
0000001111110000000000000000000000000000000000000000000000000000000000
0000000000000000000011111100000000000000000000000000000001111100000000
0000000000000000000000000000000000000000000000000000000000000000000000
0011111100000000000000000000000000000111110000000000000000000000000000
0000000000000000000000000000000000000000000000000000001111100000000000
0000000000000000011111100000000000000000000000000000000000000000000000
0000000000000000000000000000000000001111100000000000000000000000000011
1110000000000000000000000000000000000000000011110000000000000000000000
0000000000000000001111100000000000001111000000001111100000000000000000
0000000000000000000000011111110000000000000000000000000000000000000001
1111000000000000111111100000011111000000000000000000000000000000000000
0001111111110000000000000000000000000000000000000001111100000000001111
1111100000111100000000000000000000000000000000000000001111111111000000
0000000000000000000000000000000011111000000000011111111110001111100000
0000000000000000000000000000000000011111111110000000000000000000000000
0000000000000011110000000000111111111100011110000000000000000000000000
0000000000000000111111111100000000000000000000000000000000000000011111
0000000001111111111000111100000000000000000000000000000000000000000111
1111111000000000000000000000000000000000000000011110000000001111111111
0011111000000000000000000000000000000000000000001111111111000000000000
0000000000000000000000000000111100000000011111111110011110000000000000
0000000000000000000000000000011111111110000000000000000000000000000000
0000000001111000000000111111111000111100000000000000000000000000000000
0000000000011111111000000000000000000000000000000000000000001111000000
0000111111100001111000000000000000000000000000000000000000000001111110
0000000000000000000000000000000000000000001110000000000011110000001111
0000000000000000000000000000000000000000000000000000000000000000000000
0000000000000000000000011100000000000000000000011110000000000000000000
0000000000000000000000000000000000000000000000000000000000000000000000
0000111000000000000000000000111100000000000000000000000000000000000000
0000000000000000000000000000000000000000000000000000000111000000000000
0000000001111000000000000000000000000000000000000000000000000000000000
0000000000000000000000000000000000001110000000000000000000001111000000
0000000000000000000000000000000000000000000000000000000000000000000000
0000000000000000011100000000000000000000011110000000000000000000000000
0000000000000000000000000000000000000000000000000000000000000000000011
1000000000000000000000111100000000000000000000000000000000000000000000
0000000000000000000000000000000000000000000000001111000000000000000000
0001111000000000000000000000000000000000000000000000000000000000000000
0000000000000000000000000000011110000000000000000000001111000000000000
0000000000000000000000000000000011111000000000000000000000000000000000
0000000000111100000000000000000000011110000000000000000000000000000000
0000000000001111111100000000000000000000000000000000000000000111100000
0000000000000000111110000000000000000000000000000000000000000011111111
1100000000000000000000000000000000000000001111000000000000000000000011
1100000000000000000000000000000000000000000111111111100000000000000000
0000000000000000000000111110000000000000000000000111100000000000000000
0000000000000000000000001111111111000000000000000000000000000000000000
0001111000000000000000000000001111100000000000000000000000000000000000
0000011111111110000000000000000000000000000000000000001111000000000000
0000000000001111000000000000000000000000000000000000000011111111110000
0000000000000000000000000000000000111110000000000000000000000001111100
0000000000000000000000000000000000000111111111100000000000000000000000
0000000000000011111000000000000000000000000001111100000000000000000000
0000000000000000001111111111000000000000000000000000000000000000011111
0000000000000000000000000011111100000000000000000000000000000000000000
1111111100000000000000000000000000000000000001111100000000000000000000
0000000011111100000000000000000000000000000000000000111110000000000000
0000000000000000000000000111110000000000000000000000000000001111111000
0000000000000000000000000000000000000000000000000000000000000000000000
0000111111100000000000000000000000000000001111111000000000000000000000
0000000000000000000000000000000000000000000000000000001111111000000000
0000000000000000000000001111111110000000000000000000000000000000000000
0000000000000000000000000000000001111111100000000000000000000000000000
0000001111111111100000000000000000000000000000000000000000000000000000
0000000000011111111100000000000000000000000000000000000000011111111111
1111000000000000000000000000000000000000000000000000000000111111111111
0000000000000000000000000000000000000000001111111111111111111111111111
1111000000000000000000000000000011111111111111111000000000000000000000
0000000000000000000000000011111111111111111111111111111111111111111111
1111111111111111111111111110000000000000000000000000000000000000000000
0000000000111111111111111111111111111111111111111111111111111111111111
1111100000000000000000000000000000000000000000000000000000000000001111
1111111111111111111111111111111111111111111111111100000000000000000000
00000000000